<svg id="Layer_1" data-name="Layer 1" xmlns="http://www.w3.org/2000/svg" viewBox="0 0 4571.17 3156" fill="#ffffff"><title>4444</title><path d="M3994,2c7.12,1.36,14.28,2.53,21.34,4.13,31.77,7.21,56.8,24.13,73.56,52.32,14.42,24.25,16.61,50.47,9.67,77.27-9.09,35.13-19.06,70-28.79,105q-82.89,297.79-165.85,595.57Q3781.46,1276,3659,1715.68q-135.59,486.84-271.14,973.7-64.29,230.92-128.59,461.85c-.61,2.2-.85,4.51-1.26,6.77H3088c-6.81-1.38-13.62-2.78-20.44-4.15-42.32-8.48-73.19-31-87.9-72.67-7.48-21.15-5.79-42.71.08-64q20.16-73.18,40.58-146.28,134-481.09,268-962.16,162.93-585,325.85-1170Q3716,373.14,3817.88,7.55c.53-1.9,1.41-3.7,2.12-5.55Z" transform="translate(-12.29 -2)"/><path d="M1424,3158c-5-1.43-10.06-3.05-15.17-4.25-38.16-8.91-66.48-30-81.51-66.85-9-22.17-8.13-45-1.89-67.72q24.49-89.08,49.38-178,118.45-425.25,237-850.49,133.86-480.57,267.68-961.15Q2018.75,529.21,2158,28.89c2.22-8,4.52-16,6.93-24.47,3.08-.18,6-.5,8.93-.5,50.34,0,100.67.07,151-.08,18.18,0,35.92,2.4,52.93,8.78,55,20.65,81,72.5,65,131-17.95,65.85-36.52,131.52-54.83,197.26q-108.93,391.1-217.86,782.2-174.25,625.86-348.5,1251.73-107.58,386.28-215.29,772.54c-1,3.51-1.6,7.12-2.39,10.69Z" transform="translate(-12.29 -2)"/><path d="M2262,3158c-12.66-2.74-25.62-4.53-37.91-8.42-34.49-10.9-59-33.15-71.17-67.53-7.88-22.15-5.8-44.59.41-66.88q44.91-161.11,89.73-322.26,127.49-457.89,255-915.78,73.13-262.62,146.25-525.23c1-3.46,2.17-6.85,3.51-11.05H2803c20.12,0,39.9,2.12,58.84,9.48,40.85,15.87,81,59.53,64.85,124.26-8.48,33.89-18.39,67.43-27.77,101.09q-124.5,447.33-249.06,894.64Q2541,2760.86,2432.17,3151.38c-.62,2.24-1.44,4.42-2.17,6.62Z" transform="translate(-12.29 -2)"/><path d="M598,3158c-5.09-1.38-10.15-2.93-15.29-4.13-42.5-9.93-72.59-33.88-85.4-76.65-6.12-20.4-3.68-40.89,1.95-61.12q39.75-142.86,79.48-285.73,119.73-430,239.49-860,86.12-309.27,172.26-618.55c.88-3.15,2-6.23,3.33-10.07h10c49,0,98,.1,147,0,20.55-.07,40.7,2.3,59.57,10.62,35.28,15.56,58.25,41.6,64.74,80.35,2.91,17.35.16,34.47-4.55,51.36q-58.86,211.13-117.58,422.31Q1049.61,2177.66,946.17,2549q-83.29,299.17-166.5,598.38c-1,3.43-1.13,7.09-1.67,10.64Z" transform="translate(-12.29 -2)"/><path d="M686,2c7.14,1.34,14.32,2.51,21.42,4.06,18.86,4.12,36.06,11.87,50.67,24.64C791,59.43,801.43,95.58,790.67,137.26c-12.4,48-26.19,95.7-39.49,143.5Q632.62,706.6,514,1132.41,405.89,1520.72,297.76,1909c-.72,2.57-1.56,5.09-2.59,8.41-2.71.19-5.6.54-8.48.55q-75.48,0-151,0a156.84,156.84,0,0,1-52-8.5c-43.44-15.24-86-61.85-66.57-131,28.68-101.93,56.82-204,85.23-306Q232.23,1006.15,362.1,539.92,436.22,273.83,510.28,7.75c.54-1.93,1.15-3.84,1.72-5.75Z" transform="translate(-12.29 -2)"/><path d="M3906,3158c-5.11-1.37-10.17-3-15.34-4.07-19.91-4.25-38.06-12.17-53.37-25.79-31.95-28.44-42.39-64-32-104.95s22.3-81.56,33.64-122.29Q3980.48,2392.43,4122.09,1884q88.15-316.53,176.29-633.06c.71-2.57,1.57-5.09,2.63-8.52,2.61-.2,5.49-.61,8.37-.62q76,0,152,0c17.49,0,34.59,2.37,51,8.32,56.08,20.3,82.6,72.76,66.33,132-19.66,71.58-39.75,143-59.67,214.57q-107.56,386.3-215.13,772.57-99.41,356.94-198.84,713.87-10.46,37.52-21.08,75Z" transform="translate(-12.29 -2)"/></svg>